<svg width="18" height="18" viewBox="0 0 18 18" fill="none" xmlns="http://www.w3.org/2000/svg">
<path d="M10.3803 16.4583H7.04696M0.625162 3.80824C0.613206 2.59879 1.26527 1.46937 2.31867 0.874998M16.7988 3.80825C16.8108 2.59879 16.1587 1.46938 15.1053 0.875003M13.7136 5.625C13.7136 4.29892 13.1868 3.02715 12.2492 2.08947C11.3115 1.15178 10.0397 0.625 8.71363 0.625C7.38754 0.625 6.11578 1.15178 5.17809 2.08947C4.24041 3.02715 3.71363 4.29892 3.71363 5.625C3.71363 8.20015 3.06402 9.9633 2.33835 11.1295C1.72623 12.1132 1.42018 12.6051 1.4314 12.7423C1.44382 12.8942 1.47601 12.9522 1.59844 13.043C1.70901 13.125 2.20745 13.125 3.20434 13.125H14.2229C15.2198 13.125 15.7182 13.125 15.8288 13.043C15.9512 12.9522 15.9834 12.8942 15.9959 12.7423C16.0071 12.6051 15.701 12.1132 15.0889 11.1295C14.3632 9.9633 13.7136 8.20015 13.7136 5.625Z" stroke="#474747" stroke-width="1.25" stroke-linecap="round" stroke-linejoin="round"/>
</svg>
