<svg width="17" height="17" viewBox="0 0 17 17" fill="none" xmlns="http://www.w3.org/2000/svg">
<path d="M3.125 8.125H5.625M10.625 8.125V10.625M8.125 13.125H10.625M8.125 8.13417L8.13333 8.125M13.125 8.13417L13.1333 8.125M8.125 10.6342L8.13333 10.625M13.125 10.6342L13.1333 10.625M13.125 13.1342L13.1333 13.125M8.125 5.63417L8.13333 5.625M8.125 3.13417L8.13333 3.125M13.125 0.625H14.2917C14.7584 0.625 14.9917 0.625 15.17 0.715828C15.3268 0.795722 15.4543 0.923206 15.5342 1.08001C15.625 1.25827 15.625 1.49162 15.625 1.95833V3.125M13.125 15.625H14.2917C14.7584 15.625 14.9917 15.625 15.17 15.5342C15.3268 15.4543 15.4543 15.3268 15.5342 15.17C15.625 14.9917 15.625 14.7584 15.625 14.2917V13.125M3.125 0.625H1.95833C1.49162 0.625 1.25827 0.625 1.08001 0.715828C0.923206 0.795722 0.795722 0.923206 0.715828 1.08001C0.625 1.25827 0.625 1.49162 0.625 1.95833V3.125M3.125 15.625H1.95833C1.49162 15.625 1.25827 15.625 1.08001 15.5342C0.923206 15.4543 0.795722 15.3268 0.715828 15.17C0.625 14.9917 0.625 14.7584 0.625 14.2917V13.125M5.625 3.625V5.125C5.625 5.25761 5.57232 5.38479 5.47855 5.47855C5.38479 5.57232 5.25761 5.625 5.125 5.625H3.625C3.49239 5.625 3.36521 5.57232 3.27145 5.47855C3.17768 5.38479 3.125 5.25761 3.125 5.125V3.625C3.125 3.49239 3.17768 3.36521 3.27145 3.27145C3.36521 3.17768 3.49239 3.125 3.625 3.125H5.125C5.25761 3.125 5.38479 3.17768 5.47855 3.27145C5.57232 3.36521 5.625 3.49239 5.625 3.625ZM5.625 11.125V12.625C5.625 12.7576 5.57232 12.8848 5.47855 12.9786C5.38479 13.0723 5.25761 13.125 5.125 13.125H3.625C3.49239 13.125 3.36521 13.0723 3.27145 12.9786C3.17768 12.8848 3.125 12.7576 3.125 12.625V11.125C3.125 10.9924 3.17768 10.8652 3.27145 10.7714C3.36521 10.6777 3.49239 10.625 3.625 10.625H5.125C5.25761 10.625 5.38479 10.6777 5.47855 10.7714C5.57232 10.8652 5.625 10.9924 5.625 11.125ZM13.125 3.625V5.125C13.125 5.25761 13.0723 5.38479 12.9786 5.47855C12.8848 5.57232 12.7576 5.625 12.625 5.625H11.125C10.9924 5.625 10.8652 5.57232 10.7714 5.47855C10.6777 5.38479 10.625 5.25761 10.625 5.125V3.625C10.625 3.49239 10.6777 3.36521 10.7714 3.27145C10.8652 3.17768 10.9924 3.125 11.125 3.125H12.625C12.7576 3.125 12.8848 3.17768 12.9786 3.27145C13.0723 3.36521 13.125 3.49239 13.125 3.625Z" stroke="white" stroke-width="1.25" stroke-linecap="round" stroke-linejoin="round"/>
</svg>
