<svg width="20" height="20" viewBox="0 0 20 20" fill="none" xmlns="http://www.w3.org/2000/svg">

<!-- File -->
<path d="M12.5 2.5H6.5C5.4 2.5 4.85 2.5 4.43 2.72C4.06 2.91 3.76 3.21 3.57 3.58C3.35 4 3.35 4.55 3.35 5.65V14.35C3.35 15.45 3.35 16 3.57 16.42C3.76 16.79 4.06 17.09 4.43 17.28C4.85 17.5 5.4 17.5 6.5 17.5H13.5C14.6 17.5 15.15 17.5 15.57 17.28C15.94 17.09 16.24 16.79 16.43 16.42C16.65 16 16.65 15.45 16.65 14.35V6.65L12.5 2.5Z"
stroke="#191919" stroke-width="1.25" stroke-linecap="round" stroke-linejoin="round"/>

<!-- Fold -->
<path d="M12.5 2.5V6.5H16.5"
stroke="#191919" stroke-width="1.25" stroke-linecap="round" stroke-linejoin="round"/>

<!-- CSV Text Center -->
<text 
  x="10" 
  y="11.5" 
  text-anchor="middle" 
  dominant-baseline="middle"
  font-size="5.5" 
  font-weight="700"
  font-family="Arial, Helvetica, sans-serif"
  fill="#191919">
  CSV
</text>

</svg>