<svg width="3" height="15" viewBox="0 0 3 15" fill="none" xmlns="http://www.w3.org/2000/svg">
<path d="M1.45833 8.125C1.91857 8.125 2.29167 7.7519 2.29167 7.29167C2.29167 6.83143 1.91857 6.45833 1.45833 6.45833C0.998096 6.45833 0.625 6.83143 0.625 7.29167C0.625 7.7519 0.998096 8.125 1.45833 8.125Z" stroke="#191919" stroke-width="1.25" stroke-linecap="round" stroke-linejoin="round"/>
<path d="M1.45833 2.29167C1.91857 2.29167 2.29167 1.91857 2.29167 1.45833C2.29167 0.998096 1.91857 0.625 1.45833 0.625C0.998096 0.625 0.625 0.998096 0.625 1.45833C0.625 1.91857 0.998096 2.29167 1.45833 2.29167Z" stroke="#191919" stroke-width="1.25" stroke-linecap="round" stroke-linejoin="round"/>
<path d="M1.45833 13.9583C1.91857 13.9583 2.29167 13.5852 2.29167 13.125C2.29167 12.6648 1.91857 12.2917 1.45833 12.2917C0.998096 12.2917 0.625 12.6648 0.625 13.125C0.625 13.5852 0.998096 13.9583 1.45833 13.9583Z" stroke="#191919" stroke-width="1.25" stroke-linecap="round" stroke-linejoin="round"/>
</svg>
