<svg width="18" height="17" viewBox="0 0 18 17" fill="none" xmlns="http://www.w3.org/2000/svg">
<path fill-rule="evenodd" clip-rule="evenodd" d="M10.1212 1.38121C9.56084 1.74064 9.28066 1.92036 9.14035 1.95292C8.95162 1.99672 8.95201 1.99672 8.7633 1.95285C8.623 1.92024 8.34326 1.74065 7.78379 1.38149C6.1597 0.338852 4.07356 0.304333 2.42058 1.71668C0.333037 3.50032 0.0391398 6.48248 1.6785 8.592C3.04151 10.3459 7.16648 14.0451 8.51842 15.2424C8.66967 15.3763 8.7453 15.4433 8.83351 15.4696C8.9105 15.4926 8.99475 15.4926 9.07174 15.4696C9.15996 15.4433 9.23558 15.3763 9.38684 15.2424C10.7388 14.0451 14.8637 10.3459 16.2268 8.592C17.8661 6.48248 17.6081 3.48156 15.4847 1.71668C13.8045 0.320181 11.7367 0.345002 10.1212 1.38121Z" stroke="#191919" stroke-width="1.25" stroke-linecap="round" stroke-linejoin="round"/>
</svg>
